<?xml version="1.0" encoding="iso-8859-1"?>
<!-- Uploaded to: SVG Repo, www.svgrepo.com, Generator: SVG Repo Mixer Tools -->
<svg fill="#000000" height="800px" width="800px" version="1.1" id="Layer_1" xmlns="http://www.w3.org/2000/svg" xmlns:xlink="http://www.w3.org/1999/xlink" 
	 viewBox="0 0 291.744 291.744" xml:space="preserve">
<g>
	<g>
		<g>
			<path d="M260.484,239.954l1.944-1.944V97.93c0-1.076-0.868-1.944-1.944-1.944s-1.944,0.868-1.944,1.944v138.136h-55.2v-27.724
				c0-1.076-0.872-1.944-1.944-1.944c-1.072,0-1.944,0.868-1.944,1.944v29.668l1.944,1.944H260.484z"/>
			<path d="M26.824,124.426c0-1.076-0.872-1.944-1.944-1.944c-1.072,0-1.944,0.868-1.944,1.944v112.236l1.944,1.944h146.312
				c1.076,0,1.944-0.872,1.944-1.944c0-1.076-0.872-1.944-1.944-1.944H26.824V124.426z"/>
			<path d="M245.6,172.47c4.66,0,8.452-3.792,8.452-8.452c0-4.656-3.792-8.452-8.452-8.452c-4.66,0-8.448,3.796-8.448,8.452
				C237.152,168.678,240.94,172.47,245.6,172.47z M245.6,159.458c2.516,0,4.564,2.048,4.564,4.564s-2.048,4.564-4.564,4.564
				s-4.56-2.048-4.56-4.564C241.04,161.506,243.084,159.458,245.6,159.458z"/>
			<path d="M51.644,164.23l84.148-14.132l1.596-2.24l-3.84-22.86l-2.24-1.596l-26.52,4.452c-0.092-0.076-0.156-0.172-0.264-0.232
				l-13.328-7.62c-0.008-0.068,0.02-0.136,0.008-0.204c-0.312-1.888-2.092-3.156-4.004-2.856c-1.888,0.32-3.164,2.116-2.848,4.004
				c0.008,0.06,0.044,0.108,0.06,0.168l-10.1,11.548c-0.092,0.108-0.136,0.232-0.2,0.348l-26.948,4.528l-1.596,2.24l3.836,22.86
				L51.644,164.23z M87.26,123.754c0.176,0.028,0.34,0.092,0.52,0.092c0.188,0,0.38-0.012,0.572-0.044
				c0.36-0.06,0.676-0.22,0.988-0.38l9.5,5.432l-18.808,3.16L87.26,123.754z M130.036,127.562l3.196,19.024L52.92,160.074
				l-3.196-19.024L130.036,127.562z"/>
			<path d="M236.348,123.778c-8.7,8.568-17.4,17.132-26.1,25.7c-1.788,1.756,0.964,4.508,2.748,2.748
				c8.7-8.564,17.404-17.132,26.104-25.696C240.884,124.77,238.136,122.022,236.348,123.778z"/>
			<path d="M245.116,120.606c3.38-3.328,6.764-6.656,10.144-9.988c1.788-1.756-0.964-4.508-2.752-2.748
				c-3.38,3.328-6.76,6.656-10.144,9.984C240.58,119.614,243.328,122.362,245.116,120.606z"/>
			<path d="M225.896,120.97c2.904-2.752,5.812-5.504,8.712-8.252c1.82-1.724-0.932-4.468-2.752-2.752
				c-2.904,2.752-5.808,5.504-8.712,8.252C221.324,119.946,224.08,122.694,225.896,120.97z"/>
			<path d="M239.288,108.286c1.712-1.624,3.424-3.244,5.136-4.864c1.82-1.728-0.936-4.472-2.752-2.752
				c-1.712,1.624-3.424,3.244-5.136,4.864C234.716,107.262,237.472,110.01,239.288,108.286z"/>
			<path d="M209.72,136.722c3.46-3.188,6.84-6.464,10.128-9.828c1.752-1.792-0.996-4.544-2.748-2.752
				c-3.292,3.364-6.668,6.64-10.132,9.828C205.128,135.67,207.88,138.418,209.72,136.722z"/>
			<path d="M136.636,212.078c10.716-10.18,21.428-20.356,32.144-30.532c1.82-1.728-0.936-4.476-2.752-2.748
				c-10.716,10.176-21.428,20.356-32.144,30.532C132.068,211.058,134.824,213.802,136.636,212.078z"/>
			<path d="M128.112,216.39c-1.368,1.292-2.736,2.58-4.1,3.876c-1.824,1.72,0.928,4.468,2.752,2.748
				c1.368-1.292,2.736-2.58,4.1-3.872C132.684,217.422,129.928,214.674,128.112,216.39z"/>
			<path d="M157.86,206.942c7.268-6.844,14.532-13.688,21.8-20.528c1.824-1.72-0.928-4.468-2.748-2.752
				c-7.268,6.844-14.536,13.688-21.804,20.528C153.284,205.91,156.04,208.658,157.86,206.942z"/>
			<path d="M148.284,211.086c-3.156,2.98-6.312,5.96-9.468,8.94c-1.824,1.72,0.932,4.468,2.752,2.748
				c3.156-2.98,6.312-5.96,9.468-8.936C152.856,212.114,150.104,209.366,148.284,211.086z"/>
			<path d="M288.964,249.278h-12.42V82.066c4.344-2.928,7.36-8.06,7.904-14.072c0.504-2.636,0.116-7.236,0.116-7.236l-8.816-36.5
				l-1.892-1.488h-22.34H220.36h-31.156h-31.156h-31.156H95.736H64.58H33.424H10.916l-1.892,1.496L0.516,60.174l0.048,0.012
				L0.432,61.13c-0.064,1.52-0.108,3.148-0.108,4.956c0,7.2,3.636,13.388,8.884,16.476v166.716H2.776L0,252.058v14.136l2.776,2.78
				h286.188l2.78-2.78v-14.136L288.964,249.278z M273.888,79.178c-0.044-0.004-0.968,1.228-5.548,1.628h-2.484
				c-6.272,0-11.416-5.584-12.224-12.772h26.932C280.012,72.926,277.456,77.034,273.888,79.178z M253.46,26.658h0.004h18.864
				l8.352,34.584l-0.04,0.04c0.032,0.908,0.056,1.868,0.068,2.864H253.48c0.016-0.992-0.02-2.944-0.02-2.944V26.658z
				 M222.304,26.658h27.268v34.54c0,0-0.052,1.98-0.036,2.948h-27.212c0.016-0.992-0.02-2.952-0.02-2.952V26.658z M249.408,68.034
				c-0.812,7.188-5.956,12.772-12.228,12.772h-2.48c-6.272,0-11.416-5.584-12.228-12.772H249.408z M191.148,26.658h27.264v34.464
				c0,0-0.004,1.98,0,3.024h-27.264c0-1.04-0.008-3.024-0.008-3.024L191.148,26.658z M218.06,68.034
				c-1.288,7.236-6.18,12.652-12.036,12.652h-2.484c-5.856,0-10.748-5.416-12.036-12.652H218.06z M187.26,26.658v34.464v0.076
				c0,0-0.048,1.98-0.032,2.948h-27.212c0.02-0.992,0.04-1.952,0.08-2.852l-0.1-34.636H187.26z M187.096,68.034
				c-0.808,7.188-5.956,12.772-12.228,12.772h-2.484c-6.272,0-11.416-5.584-12.224-12.772H187.096z M156.104,26.658
				c0,0-0.048,36.52-0.032,37.488H128.86c0.016-0.992,0.04-1.952,0.076-2.852l-0.1-34.636H156.104z M155.94,68.034
				c-0.812,7.188-5.956,12.772-12.228,12.772h-2.48c-6.272,0-11.416-5.584-12.228-12.772H155.94z M124.948,26.658
				c0,0-0.048,36.52-0.032,37.488H97.704c0.02-0.992,0.04-1.952,0.08-2.852L97.68,26.658H124.948z M124.784,68.034
				c-0.812,7.188-5.956,12.772-12.228,12.772h-2.48c-6.272,0-11.416-5.584-12.228-12.772H124.784z M93.792,26.658
				c0,0-0.048,36.52-0.032,37.488H66.548c0.012-0.996-0.024-37.488-0.024-37.488H93.792z M93.624,68.034
				c-0.812,7.188-5.956,12.772-12.228,12.772h-2.48c-6.272,0-11.416-5.584-12.228-12.772H93.624z M62.636,26.658
				c0,0-0.048,36.52-0.032,37.488H35.392c0.012-0.996-0.024-37.488-0.024-37.488H62.636z M62.468,68.034
				c-0.812,7.188-5.956,12.772-12.228,12.772h-2.48c-6.272,0-11.416-5.584-12.228-12.772H62.468z M47.76,84.698h2.48
				c6.24,0,11.604-4.076,14.336-9.976c2.732,5.9,8.096,9.976,14.336,9.976h2.48c6.24,0,11.604-4.076,14.34-9.976
				c2.732,5.9,8.096,9.976,14.336,9.976h2.48c6.24,0,11.604-4.076,14.336-9.976c2.732,5.9,8.096,9.976,14.336,9.976h2.48
				c6.24,0,11.604-4.076,14.34-9.976c2.732,5.9,8.096,9.976,14.336,9.976h2.484c3.816,0,7.284-1.572,10.064-4.096v125.092
				c0,1.076,0.872,1.944,1.944,1.944c1.072,0,1.944-0.868,1.944-1.944V75.522c0.22-0.42,0.424-0.848,0.612-1.292
				c2.144,4.704,5.716,8.22,10.016,9.62v97.108c0,1.076,0.872,1.944,1.944,1.944c1.072,0,1.944-0.868,1.944-1.944V84.554
				c0.068,0,0.132,0.024,0.2,0.024h2.484c6.064,0,11.3-4.2,14.1-10.344c2.656,6.168,8.16,10.464,14.572,10.464h2.48
				c6.24,0,11.608-4.076,14.34-9.976c2.736,5.9,8.096,9.976,14.336,9.976h2.484c0.908,0,1.78-0.144,2.648-0.308v164.372H14.756
				V84.482c0.612,0.08,1.212,0.216,1.844,0.216h2.48c6.24,0,11.604-4.076,14.336-9.976C36.156,80.622,41.52,84.698,47.76,84.698z
				 M4.244,61.226l8.204-34.568h19.028c0,0-0.048,36.52-0.032,37.488H4.232c0.016-0.992,0.044-1.948,0.08-2.852L4.244,61.226z
				 M4.376,68.034h26.936c-0.812,7.188-5.956,12.772-12.228,12.772h-2.48c-0.78,0-1.536-0.108-2.276-0.272
				c-1.22-0.452-1.952-0.452-3.08-1.232C7.572,77.19,4.936,73.018,4.376,68.034z M286.184,263.422H5.548v-8.58h280.636V263.422z"/>
		</g>
	</g>
</g>
</svg>